<svg width="32" height="32" viewBox="0 0 32 32" fill="none" xmlns="http://www.w3.org/2000/svg">
<circle cx="16" cy="16" r="16" fill="#174459"/>
<path d="M20.9228 21.5384V20.3076C20.9228 19.6548 20.6635 19.0287 20.2018 18.567C19.7402 18.1054 19.1141 17.8461 18.4613 17.8461H13.5382C12.8854 17.8461 12.2593 18.1054 11.7976 18.567C11.336 19.0287 11.0767 19.6548 11.0767 20.3076V21.5384" stroke="#F8F8F8" stroke-width="1.5" stroke-linecap="round" stroke-linejoin="round"/>
<path d="M15.9999 15.3846C17.3593 15.3846 18.4614 14.2826 18.4614 12.9231C18.4614 11.5636 17.3593 10.4615 15.9999 10.4615C14.6404 10.4615 13.5383 11.5636 13.5383 12.9231C13.5383 14.2826 14.6404 15.3846 15.9999 15.3846Z" stroke="#F8F8F8" stroke-width="1.5" stroke-linecap="round" stroke-linejoin="round"/>
</svg>
