<svg width="32" height="32" viewBox="0 0 32 32" fill="none" xmlns="http://www.w3.org/2000/svg">
<path d="M13.2112 27.0078L10.6859 30.4794L14.7898 29.2187L28.9941 19.0835L27.419 16.8726L13.2112 27.0078Z" fill="#1FB3E3"/>
<path d="M31.0142 16.0298C30.5788 15.4196 29.7309 15.2781 29.1205 15.7136L28.0155 16.5023L29.5925 18.7123L30.6977 17.9235C31.3079 17.4881 31.4496 16.6403 31.0142 16.0298Z" fill="#1FB3E3"/>
<path d="M24.3868 5.79677C23.343 4.71575 21.9562 4.04108 20.4679 3.88678C20.0974 3.46321 19.6934 3.07991 19.2649 2.74618C17.7082 1.53251 15.8441 0.891113 13.8738 0.891113C11.3436 0.891113 8.95207 1.9726 7.28737 3.86397C4.57889 4.00175 2.20297 5.89382 1.47663 8.5127C0.6188 11.6059 2.16504 14.8036 5.08484 16.0538V23.0246C5.08484 24.2311 6.06625 25.2123 7.27247 25.2123H14.1905C14.2634 25.2123 14.3341 25.1895 14.3932 25.1473L16.5685 23.5955C16.6921 23.5076 16.7447 23.3495 16.6984 23.205C16.6521 23.0605 16.5178 22.9623 16.3658 22.9623H7.33484V21.8999H18.8346C18.9074 21.8999 18.9782 21.8771 19.0373 21.8352L20.5107 20.7842C20.6343 20.696 20.6869 20.538 20.6406 20.3934C20.5942 20.2489 20.46 20.1507 20.308 20.1507H7.33484V16.5851C7.43864 16.5909 7.53825 16.5939 7.63506 16.5939L7.67346 16.5937C7.90759 16.5937 8.14916 16.5793 8.39306 16.5506C9.94418 17.792 11.883 18.4744 13.8726 18.4748C15.841 18.4748 17.7687 17.8027 19.3173 16.5795C19.4574 16.589 19.5858 16.5937 19.7064 16.5937L19.8053 16.5944C20.0504 16.5944 20.2982 16.5795 20.5461 16.5497V20.0809C20.5461 20.2117 20.6189 20.3313 20.7353 20.3913C20.8512 20.4511 20.9915 20.4411 21.0979 20.365L22.6495 19.2582C22.7414 19.1928 22.7958 19.0869 22.7958 18.974V15.8387C24.8455 14.7393 26.1339 12.6497 26.1744 10.3338C26.2037 8.63209 25.5688 7.02092 24.3868 5.79677ZM22.6506 10.2021C22.6809 9.69007 22.289 9.24858 21.777 9.21786L21.3885 9.19436C21.1391 9.18039 20.8989 9.26418 20.7148 9.42778C20.5314 9.59046 20.4181 9.82435 20.4036 10.0692C20.3164 11.5558 19.7164 12.9813 18.714 14.0835C17.478 15.4422 15.7151 16.2213 13.877 16.2213C12.2484 16.2213 10.6819 15.6125 9.45662 14.4987L9.42706 14.4742C8.18314 13.3246 7.44632 11.7599 7.3523 10.0687C7.3388 9.82319 7.2257 9.5886 7.04231 9.42522C6.87172 9.27302 6.65249 9.18924 6.42511 9.18924C6.40533 9.18924 6.38555 9.1897 6.36716 9.19087L5.97921 9.21414C5.46977 9.24463 5.07762 9.68402 5.10532 10.1937C5.17886 11.5528 5.56495 12.8628 6.23032 14.0302C4.70782 13.4281 3.65682 11.962 3.63169 10.2737C3.6154 9.17551 4.02779 8.13661 4.79253 7.34883C5.55751 6.56081 6.58034 6.11794 7.66788 6.10165H7.81915C8.00696 6.10165 8.18686 6.04509 8.34279 5.93757C8.49313 5.87567 8.62252 5.77862 8.71957 5.65457C9.04725 5.23474 9.42636 4.85562 9.84644 4.52771C11.0073 3.62124 12.3969 3.14205 13.8654 3.14205C15.8946 3.14205 17.7736 4.05783 19.0215 5.65527C19.1041 5.7607 19.2128 5.84844 19.3373 5.91081C19.4937 6.0302 19.6778 6.09583 19.8723 6.10141C21.5256 6.14726 22.9837 7.17219 23.5869 8.71215C23.9867 9.73312 23.9639 10.8504 23.5229 11.8577C23.1319 12.7502 22.4542 13.4609 21.5896 13.892C22.2103 12.7583 22.5736 11.5005 22.6506 10.2021Z" fill="#1FB3E3"/>
</svg>
