<svg width="88" height="72" viewBox="0 0 88 72" fill="none" xmlns="http://www.w3.org/2000/svg">
<path d="M15.0548 11.04C15.1668 10.88 15.3268 10.6 15.5348 10.2C16.0468 9.288 16.3508 8.832 16.4468 8.832C16.5588 8.832 16.6148 8.896 16.6148 9.024C16.6148 9.808 16.2068 10.8 15.3908 12C13.9188 14.16 11.9588 15.24 9.51084 15.24C8.82284 15.24 8.19084 15.08 7.61484 14.76C7.03884 14.44 6.58284 14.032 6.24684 13.536C5.55884 12.528 5.21484 11.472 5.21484 10.368C5.21484 7.584 5.93484 5.344 7.37484 3.648C8.83084 1.936 10.5508 1.08 12.5348 1.08C13.2868 1.08 13.9028 1.304 14.3828 1.752C14.8628 2.184 15.1028 2.736 15.1028 3.408C15.1028 4.08 14.9348 4.704 14.5988 5.28C14.2628 5.856 13.8548 6.144 13.3748 6.144C12.9108 6.144 12.6788 6.016 12.6788 5.76C12.6788 5.472 12.8308 5.144 13.1348 4.776C13.4548 4.408 13.6148 4.04 13.6148 3.672C13.6148 2.536 13.0068 1.968 11.7908 1.968C10.5908 1.968 9.50284 2.776 8.52684 4.392C7.55084 6.008 7.06284 7.672 7.06284 9.384C7.06284 10.568 7.39884 11.624 8.07084 12.552C8.74284 13.464 9.68684 13.92 10.9028 13.92C12.3428 13.92 13.7268 12.96 15.0548 11.04ZM24.6095 13.896C24.8975 13.896 25.2815 13.568 25.7615 12.912C26.2415 12.24 26.7135 11.384 27.1775 10.344C27.6575 9.288 27.9455 8.76 28.0415 8.76C28.1535 8.76 28.2095 8.824 28.2095 8.952C28.2095 9.4 27.9775 10.112 27.5135 11.088C26.2495 13.776 25.1775 15.12 24.2975 15.12C23.5615 15.12 23.0335 14.992 22.7135 14.736C22.5695 14.592 22.4975 13.072 22.4975 10.176L18.5615 10.464C18.2575 11.296 17.9855 12.128 17.7455 12.96C17.5055 13.792 17.3455 14.304 17.2655 14.496C17.0895 14.912 16.6655 15.12 15.9935 15.12C15.5455 15.12 15.3215 14.928 15.3215 14.544C15.3215 14.16 15.6255 13.6 16.2335 12.864C16.3455 12.72 16.7135 11.944 17.3375 10.536C17.1135 10.552 16.8975 10.56 16.6895 10.56C16.1295 10.56 15.8495 10.32 15.8495 9.84C15.8495 9.408 16.0735 9.192 16.5215 9.192C16.5535 9.192 17.0095 9.232 17.8895 9.312C18.1295 8.752 18.3855 8.2 18.6575 7.656C20.7535 3.272 22.1935 1.08 22.9775 1.08C23.5695 1.08 23.9775 3.824 24.2015 9.312H24.4175C24.5295 9.312 24.5855 9.392 24.5855 9.552C24.5855 9.712 24.4655 9.848 24.2255 9.96C24.3215 12.584 24.4495 13.896 24.6095 13.896ZM18.9215 9.432C20.7935 9.432 21.9855 9.424 22.4975 9.408C22.4815 9.152 22.4655 8.704 22.4495 8.064C22.4335 7.424 22.4175 6.872 22.4015 6.408C22.3855 5.928 22.3695 5.432 22.3535 4.92C22.2895 3.816 22.1935 3.264 22.0655 3.264C21.8895 3.264 21.5295 3.784 20.9855 4.824C20.4415 5.864 20.0175 6.744 19.7135 7.464C19.2975 8.504 19.0335 9.16 18.9215 9.432ZM35.1209 3.984L35.2409 3.36C35.1769 2.496 34.5929 2.064 33.4889 2.064C32.8489 2.064 32.2889 2.296 31.8089 2.76C31.3449 3.208 31.1129 3.688 31.1129 4.2C31.1129 4.696 31.3209 5.136 31.7369 5.52C32.1689 5.888 32.6809 6.224 33.2729 6.528C33.8809 6.816 34.4809 7.136 35.0729 7.488C35.6809 7.824 36.1929 8.264 36.6089 8.808C37.0409 9.352 37.2569 9.968 37.2569 10.656C37.2569 12.08 36.6969 13.2 35.5769 14.016C34.4569 14.832 33.2489 15.24 31.9529 15.24C30.6569 15.24 29.5769 15.008 28.7129 14.544C27.8489 14.064 27.4169 13.344 27.4169 12.384C27.4169 11.872 27.5929 11.408 27.9449 10.992C28.2969 10.576 28.8009 10.368 29.4569 10.368C29.7129 10.368 29.9449 10.44 30.1529 10.584C30.3609 10.728 30.4889 10.92 30.5369 11.16C30.5369 11.4 30.3929 11.52 30.1049 11.52C29.5609 11.52 29.2889 11.752 29.2889 12.216C29.3049 12.744 29.5529 13.224 30.0329 13.656C30.5289 14.088 31.2169 14.304 32.0969 14.304C32.9929 14.304 33.7529 14 34.3769 13.392C35.0169 12.784 35.3369 12.048 35.3369 11.184C35.3369 10.608 35.1209 10.088 34.6889 9.624C34.2569 9.16 33.7369 8.768 33.1289 8.448C32.5209 8.112 31.9049 7.776 31.2809 7.44C30.6729 7.104 30.1529 6.696 29.7209 6.216C29.2889 5.736 29.0729 5.192 29.0729 4.584C29.0729 3.512 29.5289 2.656 30.4409 2.016C31.3689 1.376 32.4169 1.056 33.5849 1.056C34.3689 1.056 35.0809 1.216 35.7209 1.536C36.3609 1.856 36.6889 2.344 36.7049 3C36.7049 3.384 36.6089 3.704 36.4169 3.96C36.2249 4.216 35.9609 4.344 35.6249 4.344C35.3049 4.344 35.1369 4.224 35.1209 3.984ZM45.9813 7.176V3.096C45.6773 3.032 45.2373 2.936 44.6613 2.808C44.0853 2.664 43.6453 2.56 43.3413 2.496C42.4293 2.304 41.7093 2.208 41.1813 2.208C40.1733 2.208 39.6693 2.488 39.6693 3.048C39.6693 3.672 39.8773 4.2 40.2933 4.632C40.7253 5.064 41.1093 5.28 41.4453 5.28C41.7813 5.28 42.0773 5.192 42.3333 5.016C42.6053 4.84 42.8453 4.752 43.0533 4.752C43.3253 4.752 43.4613 4.896 43.4613 5.184C43.4613 5.456 43.3333 5.68 43.0773 5.856C42.8373 6.032 42.4533 6.12 41.9253 6.12C41.0773 6.12 40.3573 5.752 39.7653 5.016C39.1733 4.28 38.8773 3.528 38.8773 2.76C38.8773 1.992 39.0533 1.416 39.4053 1.032C39.7573 0.648 40.1973 0.456 40.7253 0.456C41.9413 0.456 43.7493 0.84 46.1493 1.608C46.3413 0.599999 46.7013 0.0959988 47.2293 0.0959988C47.4693 0.0959988 47.5893 0.751999 47.5893 2.064C49.1413 2.544 50.4773 2.784 51.5973 2.784C52.3173 2.784 52.9493 2.552 53.4933 2.088C53.6533 1.96 53.7893 1.896 53.9013 1.896C54.0293 1.896 54.0933 1.952 54.0933 2.064C54.0933 2.496 53.7733 2.888 53.1333 3.24C52.4933 3.576 51.7253 3.744 50.8293 3.744C49.9333 3.744 48.8533 3.632 47.5893 3.408C47.6213 5.616 47.6373 7.136 47.6373 7.968C47.6373 8.8 47.6053 9.512 47.5413 10.104C47.4933 10.696 47.3733 11.32 47.1813 11.976C46.9893 12.616 46.7333 13.16 46.4133 13.608C46.1093 14.04 45.6773 14.4 45.1173 14.688C44.5733 14.976 43.9333 15.12 43.1973 15.12C42.4773 15.12 41.8213 14.952 41.2293 14.616C40.6533 14.28 40.3653 13.76 40.3653 13.056C40.3653 12.624 40.4773 12.272 40.7013 12C40.9253 11.712 41.2213 11.568 41.5893 11.568C41.9733 11.568 42.1653 11.656 42.1653 11.832C42.1653 11.912 42.1173 12.072 42.0213 12.312C41.9253 12.536 41.8773 12.768 41.8773 13.008C41.8773 13.232 42.0213 13.48 42.3093 13.752C42.6133 14.024 43.0453 14.16 43.6053 14.16C45.1893 14.16 45.9813 11.832 45.9813 7.176ZM55.5794 7.44C55.5794 7.248 55.4514 7.088 55.1954 6.96C54.9394 6.816 54.6434 6.744 54.3074 6.744C53.9714 6.744 53.6434 6.824 53.3234 6.984C53.8674 7.48 54.4674 7.728 55.1234 7.728C55.2674 7.728 55.3794 7.696 55.4594 7.632C55.5394 7.552 55.5794 7.488 55.5794 7.44ZM56.7074 3.432L56.7554 2.784C56.7554 2.432 56.6194 2.104 56.3474 1.8C56.0914 1.48 55.7394 1.32 55.2914 1.32C54.5234 1.32 53.8274 1.664 53.2034 2.352C52.5794 3.04 52.2674 3.776 52.2674 4.56C52.2674 5.328 52.4674 5.976 52.8674 6.504C53.5554 6.2 54.1954 6.048 54.7874 6.048C55.3794 6.048 55.8514 6.152 56.2034 6.36C56.5714 6.552 56.7554 6.848 56.7554 7.248C56.7554 7.648 56.5554 7.944 56.1554 8.136C55.7714 8.328 55.3394 8.424 54.8594 8.424C53.9634 8.424 53.1474 8.176 52.4114 7.68C52.0274 8.08 51.7154 8.552 51.4754 9.096C51.2514 9.64 51.1394 10.144 51.1394 10.608C51.1394 11.552 51.4434 12.416 52.0514 13.2C52.6594 13.984 53.4674 14.376 54.4754 14.376C56.5874 14.376 58.3074 12.984 59.6354 10.2C60.0834 9.288 60.3634 8.832 60.4754 8.832C60.6034 8.832 60.6674 8.896 60.6674 9.024C60.6674 9.664 60.2674 10.632 59.4674 11.928C58.6834 13.208 57.8274 14.104 56.8994 14.616C55.9874 15.112 54.8594 15.36 53.5154 15.36C52.1874 15.36 51.1394 14.968 50.3714 14.184C49.6034 13.4 49.2194 12.424 49.2194 11.256C49.2194 10.488 49.4434 9.752 49.8914 9.048C50.3554 8.328 50.9474 7.712 51.6674 7.2C50.9154 6.576 50.5394 5.824 50.5394 4.944C50.5394 3.728 51.0114 2.704 51.9554 1.872C52.8994 1.024 54.0434 0.599999 55.3874 0.599999C56.2674 0.599999 57.0034 0.831999 57.5954 1.296C58.2034 1.744 58.5074 2.28 58.5074 2.904C58.5074 3.256 58.4034 3.544 58.1954 3.768C57.9874 3.992 57.7234 4.104 57.4034 4.104C56.9394 4.104 56.7074 3.88 56.7074 3.432ZM63.9685 6.48C64.1925 4.752 64.7125 3.424 65.5285 2.496C66.3605 1.552 67.4485 1.08 68.7925 1.08C70.1365 1.08 70.8085 1.544 70.8085 2.472C70.8085 3.096 70.6565 3.672 70.3525 4.2C70.0645 4.712 69.6725 5.144 69.1765 5.496C68.2005 6.152 67.0565 6.624 65.7445 6.912C65.4245 9.664 64.9525 11.632 64.3285 12.816C65.8005 13.312 66.7925 13.632 67.3045 13.776C67.8165 13.904 68.3525 13.968 68.9125 13.968C69.4885 13.968 69.8805 13.736 70.0885 13.272C70.2965 12.808 70.4485 12.576 70.5445 12.576C70.7365 12.576 70.8325 12.696 70.8325 12.936C70.8325 13.688 70.5525 14.328 69.9925 14.856C69.4325 15.384 68.8245 15.648 68.1685 15.648C67.4965 15.648 66.8885 15.536 66.3445 15.312C65.8005 15.088 65.4565 14.944 65.3125 14.88C65.1685 14.816 64.8725 14.68 64.4245 14.472C63.9925 14.264 63.6885 14.12 63.5125 14.04C62.9045 14.68 62.0885 15 61.0645 15C60.6485 15 60.2805 14.848 59.9605 14.544C59.6405 14.24 59.4805 13.88 59.4805 13.464C59.4805 12.552 60.0005 12.096 61.0405 12.096C61.4885 12.096 62.1125 12.2 62.9125 12.408C63.2165 11.448 63.5365 9.704 63.8725 7.176C63.6965 7.192 63.4565 7.2 63.1525 7.2C62.8645 7.2 62.7205 7.152 62.7205 7.056C62.7205 6.752 63.1365 6.56 63.9685 6.48ZM65.8165 6.216C66.8405 5.992 67.6805 5.616 68.3365 5.088C69.0085 4.544 69.3445 3.84 69.3445 2.976C69.3445 2.112 69.0485 1.68 68.4565 1.68C67.1605 1.68 66.2805 3.192 65.8165 6.216ZM62.3605 13.536C61.4325 13.136 60.8565 12.936 60.6325 12.936C60.4245 12.936 60.3205 13.048 60.3205 13.272C60.3205 13.496 60.4165 13.688 60.6085 13.848C60.8165 14.008 61.0805 14.088 61.4005 14.088C61.7205 14.088 62.0405 13.904 62.3605 13.536ZM71.2267 9.648C71.2267 8.576 71.4267 7.52 71.8267 6.48C72.2427 5.424 72.8347 4.552 73.6027 3.864C73.7947 2.824 74.2907 1.984 75.0907 1.344C75.9067 0.688 77.0667 0.36 78.5707 0.36C80.0747 0.36 81.2747 0.952 82.1707 2.136C83.0827 3.304 83.5387 4.832 83.5387 6.72C83.5387 7.952 83.3547 9.12 82.9867 10.224C83.7227 9.968 84.3867 9.648 84.9787 9.264C85.5867 8.864 85.8987 8.664 85.9147 8.664C86.0907 8.664 86.1787 8.768 86.1787 8.976C86.1787 9.152 85.7947 9.496 85.0267 10.008C84.2587 10.504 83.4667 10.856 82.6507 11.064C82.0587 12.36 81.2187 13.384 80.1307 14.136C79.0427 14.872 77.7227 15.24 76.1707 15.24C74.6347 15.24 73.4267 14.728 72.5467 13.704C71.6667 12.664 71.2267 11.312 71.2267 9.648ZM81.3547 10.512C81.5627 9.792 81.6667 8.992 81.6667 8.112C81.6667 6.224 81.3067 4.624 80.5867 3.312C79.8827 2 78.8747 1.344 77.5627 1.344C77.0027 1.344 76.4427 1.504 75.8827 1.824C75.3387 2.128 74.9467 2.544 74.7067 3.072C75.5387 2.608 76.3787 2.376 77.2267 2.376C78.0907 2.376 78.5227 2.496 78.5227 2.736C78.5227 2.88 78.4667 2.992 78.3547 3.072C78.2427 3.152 78.1307 3.192 78.0187 3.192C76.6427 3.192 75.4747 3.656 74.5147 4.584C74.6427 6.216 75.3547 7.616 76.6507 8.784C77.9627 9.936 79.5307 10.512 81.3547 10.512ZM77.0827 14.016C79.0027 14.016 80.3387 13.112 81.0907 11.304C79.1707 11.304 77.4987 10.8 76.0747 9.792C74.6667 8.784 73.8347 7.464 73.5787 5.832C73.1307 6.68 72.9067 7.632 72.9067 8.688C72.9067 10.144 73.3067 11.4 74.1067 12.456C74.9227 13.496 75.9147 14.016 77.0827 14.016ZM33.7939 33.384L33.9379 34.92C33.9379 35.08 33.8499 35.208 33.6739 35.304C33.5139 35.4 33.3779 35.448 33.2659 35.448C33.0419 35.448 32.8419 35.272 32.6659 34.92C32.5059 34.552 32.4259 34.216 32.4259 33.912C32.4259 32.728 32.8339 31.728 33.6499 30.912C34.4819 30.08 35.5299 29.456 36.7939 29.04C36.7939 28.496 36.9059 27.984 37.1299 27.504C37.3699 27.008 37.7379 26.76 38.2339 26.76C38.4419 26.76 38.5459 27.056 38.5459 27.648V28.656C39.0579 28.592 39.4339 28.56 39.6739 28.56C41.8019 28.56 43.4819 29.16 44.7139 30.36C45.9619 31.544 46.5859 33.04 46.5859 34.848C46.5859 36.096 46.3619 37.2 45.9139 38.16C45.4659 39.12 44.8579 39.88 44.0899 40.44C42.5539 41.56 40.7139 42.12 38.5699 42.12H38.0659C38.0179 42.584 37.9539 42.816 37.8739 42.816C37.1219 42.816 36.6179 42.712 36.3619 42.504C36.2499 42.392 36.1859 42.2 36.1699 41.928C34.7459 41.528 34.0339 41.088 34.0339 40.608C34.0339 40.448 34.0899 40.328 34.2019 40.248C34.3139 40.152 34.4339 40.104 34.5619 40.104C34.7059 40.104 35.2419 40.296 36.1699 40.68C36.3139 36.488 36.4979 32.888 36.7219 29.88C35.8419 30.184 35.1299 30.64 34.5859 31.248C34.0579 31.856 33.7939 32.568 33.7939 33.384ZM39.0259 29.496C38.8019 29.496 38.6339 29.504 38.5219 29.52C38.4579 32.32 38.3779 34.672 38.2819 36.576C38.2019 39.056 38.1459 40.616 38.1139 41.256C38.4339 41.304 38.7699 41.328 39.1219 41.328C40.6419 41.328 41.9619 40.768 43.0819 39.648C44.2019 38.512 44.7619 37.12 44.7619 35.472C44.7619 33.824 44.2259 32.416 43.1539 31.248C42.0819 30.08 40.7059 29.496 39.0259 29.496ZM54.513 34.44C54.513 34.248 54.385 34.088 54.129 33.96C53.873 33.816 53.577 33.744 53.241 33.744C52.905 33.744 52.577 33.824 52.257 33.984C52.801 34.48 53.401 34.728 54.057 34.728C54.201 34.728 54.313 34.696 54.393 34.632C54.473 34.552 54.513 34.488 54.513 34.44ZM55.641 30.432L55.689 29.784C55.689 29.432 55.553 29.104 55.281 28.8C55.025 28.48 54.673 28.32 54.225 28.32C53.457 28.32 52.761 28.664 52.137 29.352C51.513 30.04 51.201 30.776 51.201 31.56C51.201 32.328 51.401 32.976 51.801 33.504C52.489 33.2 53.129 33.048 53.721 33.048C54.313 33.048 54.785 33.152 55.137 33.36C55.505 33.552 55.689 33.848 55.689 34.248C55.689 34.648 55.489 34.944 55.089 35.136C54.705 35.328 54.273 35.424 53.793 35.424C52.897 35.424 52.081 35.176 51.345 34.68C50.961 35.08 50.649 35.552 50.409 36.096C50.185 36.64 50.073 37.144 50.073 37.608C50.073 38.552 50.377 39.416 50.985 40.2C51.593 40.984 52.401 41.376 53.409 41.376C55.521 41.376 57.241 39.984 58.569 37.2C59.017 36.288 59.297 35.832 59.409 35.832C59.537 35.832 59.601 35.896 59.601 36.024C59.601 36.664 59.201 37.632 58.401 38.928C57.617 40.208 56.761 41.104 55.833 41.616C54.921 42.112 53.793 42.36 52.449 42.36C51.121 42.36 50.073 41.968 49.305 41.184C48.537 40.4 48.153 39.424 48.153 38.256C48.153 37.488 48.377 36.752 48.825 36.048C49.289 35.328 49.881 34.712 50.601 34.2C49.849 33.576 49.473 32.824 49.473 31.944C49.473 30.728 49.945 29.704 50.889 28.872C51.833 28.024 52.977 27.6 54.321 27.6C55.201 27.6 55.937 27.832 56.529 28.296C57.137 28.744 57.441 29.28 57.441 29.904C57.441 30.256 57.337 30.544 57.129 30.768C56.921 30.992 56.657 31.104 56.337 31.104C55.873 31.104 55.641 30.88 55.641 30.432ZM13.8802 70.032L14.6723 69.84C14.9283 69.84 15.0563 69.968 15.0563 70.224C15.0403 70.64 14.8243 71.008 14.4083 71.328C14.0083 71.664 13.5523 71.832 13.0403 71.832C12.5283 71.832 12.1203 71.584 11.8163 71.088C11.3843 70.368 10.9763 69.08 10.5923 67.224C10.4163 66.328 10.2083 65.592 9.96825 65.016C9.53625 65.16 9.08025 65.232 8.60025 65.232C8.12025 65.232 7.69625 65.136 7.32825 64.944C6.97625 64.736 6.80025 64.488 6.80025 64.2C6.83225 63.464 7.42425 63.096 8.57625 63.096C9.13625 63.096 9.73625 63.344 10.3763 63.84C11.3683 63.088 11.8643 62.04 11.8643 60.696C11.8643 59.896 11.7123 59.192 11.4083 58.584C11.1043 57.96 10.7043 57.472 10.2083 57.12C9.23225 56.432 8.14425 56.088 6.94425 56.088C6.91225 56.44 6.85625 57 6.77625 57.768C6.61625 59.368 6.52025 60.608 6.48825 61.488L6.41625 65.28C6.41625 68.192 5.84025 69.648 4.68825 69.648C3.95225 69.648 3.58425 69.336 3.58425 68.712C3.58425 68.552 3.68825 68.28 3.89625 67.896C4.12025 67.512 4.28025 67.072 4.37625 66.576C4.47225 66.064 4.57625 64.584 4.68825 62.136C4.80025 59.672 4.95225 57.736 5.14425 56.328C4.29625 56.568 3.60025 56.936 3.05625 57.432C2.52825 57.928 2.26425 58.512 2.26425 59.184C2.26425 59.568 2.17625 59.88 2.00025 60.12C1.82425 60.344 1.60825 60.456 1.35225 60.456C0.88825 60.456 0.65625 60.208 0.65625 59.712C0.65625 58.592 1.10425 57.672 2.00025 56.952C2.91225 56.216 4.03225 55.688 5.36025 55.368C5.68025 54.296 6.12825 53.76 6.70425 53.76C6.92825 53.76 7.04025 54.016 7.04025 54.528C7.04025 54.64 7.02425 54.84 6.99225 55.128C7.16825 55.096 7.50425 55.08 8.00025 55.08C8.49625 55.08 9.05625 55.152 9.68025 55.296C10.3043 55.44 10.9283 55.688 11.5523 56.04C12.1923 56.376 12.7043 56.896 13.0883 57.6C13.4723 58.288 13.6643 59.096 13.6643 60.024C13.6643 60.952 13.4243 61.816 12.9443 62.616C12.4643 63.416 11.8403 64.056 11.0723 64.536C11.6163 65.208 12.0403 66.032 12.3443 67.008C12.6643 67.984 12.9603 68.728 13.2323 69.24C13.5043 69.768 13.7203 70.032 13.8802 70.032ZM7.78425 63.912C7.78425 64.04 7.89625 64.152 8.12025 64.248C8.34425 64.344 8.57625 64.392 8.81625 64.392C9.07225 64.392 9.30425 64.352 9.51225 64.272C9.19225 63.904 8.82425 63.72 8.40825 63.72C7.99225 63.72 7.78425 63.784 7.78425 63.912ZM21.5599 61.44C21.5599 61.248 21.4319 61.088 21.1759 60.96C20.9199 60.816 20.6239 60.744 20.2879 60.744C19.9519 60.744 19.6239 60.824 19.3039 60.984C19.8479 61.48 20.4479 61.728 21.1039 61.728C21.2479 61.728 21.3599 61.696 21.4399 61.632C21.5199 61.552 21.5599 61.488 21.5599 61.44ZM22.6879 57.432L22.7359 56.784C22.7359 56.432 22.5999 56.104 22.3279 55.8C22.0719 55.48 21.7199 55.32 21.2719 55.32C20.5039 55.32 19.8079 55.664 19.1839 56.352C18.5599 57.04 18.2479 57.776 18.2479 58.56C18.2479 59.328 18.4479 59.976 18.8479 60.504C19.5359 60.2 20.1759 60.048 20.7679 60.048C21.3599 60.048 21.8319 60.152 22.1839 60.36C22.5519 60.552 22.7359 60.848 22.7359 61.248C22.7359 61.648 22.5359 61.944 22.1359 62.136C21.7519 62.328 21.3199 62.424 20.8399 62.424C19.9439 62.424 19.1279 62.176 18.3919 61.68C18.0079 62.08 17.6959 62.552 17.4559 63.096C17.2319 63.64 17.1199 64.144 17.1199 64.608C17.1199 65.552 17.4239 66.416 18.0319 67.2C18.6399 67.984 19.4479 68.376 20.4559 68.376C22.5679 68.376 24.2879 66.984 25.6159 64.2C26.0639 63.288 26.3439 62.832 26.4559 62.832C26.5839 62.832 26.6479 62.896 26.6479 63.024C26.6479 63.664 26.2479 64.632 25.4479 65.928C24.6639 67.208 23.8079 68.104 22.8799 68.616C21.9679 69.112 20.8399 69.36 19.4959 69.36C18.1679 69.36 17.1199 68.968 16.3519 68.184C15.5839 67.4 15.1999 66.424 15.1999 65.256C15.1999 64.488 15.4239 63.752 15.8719 63.048C16.3359 62.328 16.9279 61.712 17.6479 61.2C16.8959 60.576 16.5199 59.824 16.5199 58.944C16.5199 57.728 16.9919 56.704 17.9359 55.872C18.8799 55.024 20.0239 54.6 21.3679 54.6C22.2479 54.6 22.9839 54.832 23.5759 55.296C24.1839 55.744 24.4879 56.28 24.4879 56.904C24.4879 57.256 24.3839 57.544 24.1759 57.768C23.9679 57.992 23.7039 58.104 23.3839 58.104C22.9199 58.104 22.6879 57.88 22.6879 57.432ZM34.965 65.04C35.077 64.88 35.237 64.6 35.445 64.2C35.957 63.288 36.261 62.832 36.357 62.832C36.469 62.832 36.525 62.896 36.525 63.024C36.525 63.808 36.117 64.8 35.301 66C33.829 68.16 31.869 69.24 29.421 69.24C28.733 69.24 28.101 69.08 27.525 68.76C26.949 68.44 26.493 68.032 26.157 67.536C25.469 66.528 25.125 65.472 25.125 64.368C25.125 61.584 25.845 59.344 27.285 57.648C28.741 55.936 30.461 55.08 32.445 55.08C33.197 55.08 33.813 55.304 34.293 55.752C34.773 56.184 35.013 56.736 35.013 57.408C35.013 58.08 34.845 58.704 34.509 59.28C34.173 59.856 33.765 60.144 33.285 60.144C32.821 60.144 32.589 60.016 32.589 59.76C32.589 59.472 32.741 59.144 33.045 58.776C33.365 58.408 33.525 58.04 33.525 57.672C33.525 56.536 32.917 55.968 31.701 55.968C30.501 55.968 29.413 56.776 28.437 58.392C27.461 60.008 26.973 61.672 26.973 63.384C26.973 64.568 27.309 65.624 27.981 66.552C28.653 67.464 29.597 67.92 30.813 67.92C32.253 67.92 33.637 66.96 34.965 65.04ZM41.9036 61.44C41.9036 61.248 41.7756 61.088 41.5196 60.96C41.2636 60.816 40.9676 60.744 40.6316 60.744C40.2956 60.744 39.9676 60.824 39.6476 60.984C40.1916 61.48 40.7916 61.728 41.4476 61.728C41.5916 61.728 41.7036 61.696 41.7836 61.632C41.8636 61.552 41.9036 61.488 41.9036 61.44ZM43.0316 57.432L43.0796 56.784C43.0796 56.432 42.9436 56.104 42.6716 55.8C42.4156 55.48 42.0636 55.32 41.6156 55.32C40.8476 55.32 40.1516 55.664 39.5276 56.352C38.9036 57.04 38.5916 57.776 38.5916 58.56C38.5916 59.328 38.7916 59.976 39.1916 60.504C39.8796 60.2 40.5196 60.048 41.1116 60.048C41.7036 60.048 42.1756 60.152 42.5276 60.36C42.8956 60.552 43.0796 60.848 43.0796 61.248C43.0796 61.648 42.8796 61.944 42.4796 62.136C42.0956 62.328 41.6636 62.424 41.1836 62.424C40.2876 62.424 39.4716 62.176 38.7356 61.68C38.3516 62.08 38.0396 62.552 37.7996 63.096C37.5756 63.64 37.4636 64.144 37.4636 64.608C37.4636 65.552 37.7676 66.416 38.3756 67.2C38.9836 67.984 39.7916 68.376 40.7996 68.376C42.9116 68.376 44.6316 66.984 45.9596 64.2C46.4076 63.288 46.6876 62.832 46.7996 62.832C46.9276 62.832 46.9916 62.896 46.9916 63.024C46.9916 63.664 46.5916 64.632 45.7916 65.928C45.0076 67.208 44.1516 68.104 43.2236 68.616C42.3116 69.112 41.1836 69.36 39.8396 69.36C38.5116 69.36 37.4636 68.968 36.6956 68.184C35.9276 67.4 35.5436 66.424 35.5436 65.256C35.5436 64.488 35.7676 63.752 36.2156 63.048C36.6796 62.328 37.2716 61.712 37.9916 61.2C37.2396 60.576 36.8636 59.824 36.8636 58.944C36.8636 57.728 37.3356 56.704 38.2796 55.872C39.2236 55.024 40.3676 54.6 41.7116 54.6C42.5916 54.6 43.3276 54.832 43.9196 55.296C44.5276 55.744 44.8316 56.28 44.8316 56.904C44.8316 57.256 44.7276 57.544 44.5196 57.768C44.3116 57.992 44.0476 58.104 43.7276 58.104C43.2636 58.104 43.0316 57.88 43.0316 57.432ZM54.3728 56.952L54.4688 61.416C54.4688 66.792 52.6288 69.48 48.9488 69.48C48.2288 69.48 47.5728 69.312 46.9808 68.976C46.4048 68.64 46.1168 68.12 46.1168 67.416C46.1168 66.984 46.2288 66.632 46.4528 66.36C46.6768 66.072 46.9728 65.928 47.3408 65.928C47.7248 65.928 47.9168 66.016 47.9168 66.192C47.9168 66.272 47.8688 66.432 47.7728 66.672C47.6768 66.896 47.6288 67.128 47.6288 67.368C47.6288 67.592 47.7648 67.84 48.0368 68.112C48.3088 68.368 48.7168 68.496 49.2608 68.496C49.8048 68.496 50.2768 68.384 50.6768 68.16C51.0768 67.936 51.3968 67.608 51.6367 67.176C51.8768 66.728 52.0688 66.272 52.2128 65.808C52.3728 65.344 52.4848 64.76 52.5488 64.056C52.6448 63.016 52.6928 61.84 52.6928 60.528C52.6928 59.2 52.7088 58.104 52.7408 57.24C50.6928 57.592 49.6688 58.472 49.6688 59.88C49.6688 60.28 49.5808 60.592 49.4048 60.816C49.2448 61.04 49.0368 61.152 48.7808 61.152C48.3008 61.152 48.0608 60.88 48.0608 60.336C48.0608 59.36 48.4848 58.544 49.3328 57.888C50.1968 57.232 51.3648 56.744 52.8368 56.424C52.9488 55.768 53.2208 55.24 53.6528 54.84C54.0848 54.424 54.4768 54.216 54.8288 54.216C55.1808 54.216 55.4608 54.32 55.6688 54.528C55.8928 54.72 56.0048 54.984 56.0048 55.32C56.0048 56.104 55.4608 56.648 54.3728 56.952ZM55.0208 55.032C54.6688 55.032 54.4608 55.392 54.3968 56.112C54.9728 55.936 55.2608 55.704 55.2608 55.416C55.2608 55.16 55.1808 55.032 55.0208 55.032ZM63.1258 61.176V57.096C62.8218 57.032 62.3818 56.936 61.8058 56.808C61.2298 56.664 60.7898 56.56 60.4858 56.496C59.5738 56.304 58.8538 56.208 58.3258 56.208C57.3178 56.208 56.8138 56.488 56.8138 57.048C56.8138 57.672 57.0218 58.2 57.4378 58.632C57.8698 59.064 58.2538 59.28 58.5898 59.28C58.9258 59.28 59.2218 59.192 59.4778 59.016C59.7498 58.84 59.9898 58.752 60.1978 58.752C60.4698 58.752 60.6058 58.896 60.6058 59.184C60.6058 59.456 60.4778 59.68 60.2218 59.856C59.9818 60.032 59.5978 60.12 59.0698 60.12C58.2218 60.12 57.5018 59.752 56.9098 59.016C56.3178 58.28 56.0218 57.528 56.0218 56.76C56.0218 55.992 56.1978 55.416 56.5498 55.032C56.9018 54.648 57.3418 54.456 57.8698 54.456C59.0858 54.456 60.8938 54.84 63.2938 55.608C63.4858 54.6 63.8458 54.096 64.3738 54.096C64.6138 54.096 64.7338 54.752 64.7338 56.064C66.2858 56.544 67.6218 56.784 68.7418 56.784C69.4618 56.784 70.0938 56.552 70.6378 56.088C70.7978 55.96 70.9338 55.896 71.0458 55.896C71.1738 55.896 71.2378 55.952 71.2378 56.064C71.2378 56.496 70.9178 56.888 70.2778 57.24C69.6378 57.576 68.8698 57.744 67.9738 57.744C67.0778 57.744 65.9978 57.632 64.7338 57.408C64.7658 59.616 64.7818 61.136 64.7818 61.968C64.7818 62.8 64.7498 63.512 64.6858 64.104C64.6378 64.696 64.5178 65.32 64.3258 65.976C64.1338 66.616 63.8778 67.16 63.5578 67.608C63.2538 68.04 62.8218 68.4 62.2618 68.688C61.7178 68.976 61.0778 69.12 60.3418 69.12C59.6218 69.12 58.9658 68.952 58.3738 68.616C57.7978 68.28 57.5098 67.76 57.5098 67.056C57.5098 66.624 57.6218 66.272 57.8458 66C58.0698 65.712 58.3658 65.568 58.7338 65.568C59.1178 65.568 59.3098 65.656 59.3098 65.832C59.3098 65.912 59.2618 66.072 59.1658 66.312C59.0698 66.536 59.0218 66.768 59.0218 67.008C59.0218 67.232 59.1658 67.48 59.4538 67.752C59.7578 68.024 60.1898 68.16 60.7498 68.16C62.3338 68.16 63.1258 65.832 63.1258 61.176ZM75.3399 67.896C75.6279 67.896 76.0119 67.568 76.4919 66.912C76.9719 66.24 77.4439 65.384 77.9079 64.344C78.3879 63.288 78.6759 62.76 78.7719 62.76C78.8839 62.76 78.9399 62.824 78.9399 62.952C78.9399 63.4 78.7079 64.112 78.2439 65.088C76.9799 67.776 75.9079 69.12 75.0279 69.12C74.2919 69.12 73.7639 68.992 73.4439 68.736C73.2999 68.592 73.2279 67.072 73.2279 64.176L69.2919 64.464C68.9879 65.296 68.7159 66.128 68.4759 66.96C68.2359 67.792 68.0759 68.304 67.9959 68.496C67.8199 68.912 67.3959 69.12 66.7239 69.12C66.2759 69.12 66.0519 68.928 66.0519 68.544C66.0519 68.16 66.3559 67.6 66.9639 66.864C67.0759 66.72 67.4439 65.944 68.0679 64.536C67.8439 64.552 67.6279 64.56 67.4199 64.56C66.8599 64.56 66.5799 64.32 66.5799 63.84C66.5799 63.408 66.8039 63.192 67.2519 63.192C67.2839 63.192 67.7399 63.232 68.6199 63.312C68.8599 62.752 69.1159 62.2 69.3879 61.656C71.4839 57.272 72.9239 55.08 73.7079 55.08C74.2999 55.08 74.7079 57.824 74.9319 63.312H75.1479C75.2599 63.312 75.3159 63.392 75.3159 63.552C75.3159 63.712 75.1959 63.848 74.9559 63.96C75.0519 66.584 75.1799 67.896 75.3399 67.896ZM69.6519 63.432C71.5239 63.432 72.7159 63.424 73.2279 63.408C73.2119 63.152 73.1959 62.704 73.1799 62.064C73.1639 61.424 73.1479 60.872 73.1319 60.408C73.1159 59.928 73.0999 59.432 73.0839 58.92C73.0199 57.816 72.9239 57.264 72.7959 57.264C72.6199 57.264 72.2599 57.784 71.7159 58.824C71.1719 59.864 70.7479 60.744 70.4439 61.464C70.0279 62.504 69.7639 63.16 69.6519 63.432ZM85.8514 57.984L85.9714 57.36C85.9074 56.496 85.3234 56.064 84.2194 56.064C83.5794 56.064 83.0194 56.296 82.5394 56.76C82.0754 57.208 81.8434 57.688 81.8434 58.2C81.8434 58.696 82.0514 59.136 82.4674 59.52C82.8994 59.888 83.4114 60.224 84.0034 60.528C84.6114 60.816 85.2114 61.136 85.8034 61.488C86.4114 61.824 86.9234 62.264 87.3394 62.808C87.7714 63.352 87.9874 63.968 87.9874 64.656C87.9874 66.08 87.4274 67.2 86.3074 68.016C85.1874 68.832 83.9794 69.24 82.6834 69.24C81.3874 69.24 80.3074 69.008 79.4434 68.544C78.5794 68.064 78.1474 67.344 78.1474 66.384C78.1474 65.872 78.3234 65.408 78.6754 64.992C79.0274 64.576 79.5314 64.368 80.1874 64.368C80.4434 64.368 80.6754 64.44 80.8834 64.584C81.0914 64.728 81.2194 64.92 81.2674 65.16C81.2674 65.4 81.1234 65.52 80.8354 65.52C80.2914 65.52 80.0194 65.752 80.0194 66.216C80.0354 66.744 80.2834 67.224 80.7634 67.656C81.2594 68.088 81.9474 68.304 82.8274 68.304C83.7234 68.304 84.4834 68 85.1074 67.392C85.7474 66.784 86.0674 66.048 86.0674 65.184C86.0674 64.608 85.8514 64.088 85.4194 63.624C84.9874 63.16 84.4674 62.768 83.8594 62.448C83.2514 62.112 82.6354 61.776 82.0114 61.44C81.4034 61.104 80.8834 60.696 80.4514 60.216C80.0194 59.736 79.8034 59.192 79.8034 58.584C79.8034 57.512 80.2594 56.656 81.1714 56.016C82.0994 55.376 83.1474 55.056 84.3154 55.056C85.0994 55.056 85.8114 55.216 86.4514 55.536C87.0914 55.856 87.4194 56.344 87.4354 57C87.4354 57.384 87.3394 57.704 87.1474 57.96C86.9554 58.216 86.6914 58.344 86.3554 58.344C86.0354 58.344 85.8674 58.224 85.8514 57.984Z" fill="black"/>
</svg>
